<svg id="Layer_1" data-name="Layer 1" xmlns="http://www.w3.org/2000/svg" viewBox="0 0 431.93 384.86"><defs><style>.cls-1{fill:#bcbcbc;}.cls-2{fill:#fff;}</style></defs><path class="cls-1" d="M198.64,70.47c-2.75,2.33-6.43,2.36-7.47,2.36-1.36,0-5.72-.06-8.89-3.4a8.13,8.13,0,0,1-1.1-1.48l3.59-2.49c1,1.48,2.88,3.42,7.08,3.42a8,8,0,0,0,1.68-.16c.49-.09,2.72-.71,2.72-2.84a2.31,2.31,0,0,0-.42-1.36c-.78-1-2.85-1.32-4-1.58l-2.72-.62a14.47,14.47,0,0,1-3.46-1.06A5.76,5.76,0,0,1,182.41,56a6.78,6.78,0,0,1,.87-3.36c1-1.75,3.53-3.75,8.15-3.75a10.79,10.79,0,0,1,9.21,4.62l-3.52,2.62a6.64,6.64,0,0,0-5.92-3.4c-.22,0-3.1,0-4,1.75a2.11,2.11,0,0,0-.26,1,2,2,0,0,0,.29,1c.55.94,1.82,1.23,3.92,1.68l2.36.52c2.16.49,4.56,1.13,6.07,2.91a5.18,5.18,0,0,1,1.33,3.85,6.08,6.08,0,0,1-2.23,5" transform="translate(-4.5 -0.27)"/><polygon class="cls-1" points="200.09 71.98 200.09 49.15 216.32 49.15 216.32 52.96 204.29 52.96 204.29 58.33 215.32 58.33 215.32 62.02 204.29 62.02 204.29 68.13 217.13 68.13 217.13 71.98 200.09 71.98"/><path class="cls-1" d="M242.61,69.56a10.18,10.18,0,0,1-3.88,2.62,11.45,11.45,0,0,1-4,.65,9.63,9.63,0,0,1-7.82-3.52,12.27,12.27,0,0,1-3-8.44,13.93,13.93,0,0,1,.68-4.43,10.64,10.64,0,0,1,10.28-7.6,10.52,10.52,0,0,1,8.08,3.62,12.14,12.14,0,0,1,2.85,8.37,12.86,12.86,0,0,1-3.17,8.73m-2.49-13.8a6,6,0,0,0-5.3-3,6.41,6.41,0,0,0-2.91.68c-1.62.87-3.63,3-3.63,7.27,0,.88,0,5.08,3.24,7.18a6.1,6.1,0,0,0,3.36,1,6.24,6.24,0,0,0,2.62-.55c1.68-.77,3.88-2.71,4-7a10.09,10.09,0,0,0-1.36-5.53" transform="translate(-4.5 -0.27)"/><path class="cls-1" d="M267.93,67.59c-.75,2.3-3.37,5.24-9,5.24-2.69,0-5.37-.65-7.25-2.72a6.61,6.61,0,0,1-1.45-2.45,15.44,15.44,0,0,1-.36-4.66V49.42h4.3v14a7.18,7.18,0,0,0,.23,2.53c.42,1.35,1.65,2.71,4.69,2.71.55,0,3.69,0,4.62-2.58a8.08,8.08,0,0,0,.29-2.88V49.42h4.27V62.58c0,2.62,0,3.72-.38,5" transform="translate(-4.5 -0.27)"/><polygon class="cls-1" points="269.11 71.98 269.11 49.15 273.41 49.15 273.41 68.1 282.47 68.1 282.47 71.98 269.11 71.98"/><polygon class="cls-1" points="312.28 71.98 312.7 53.22 307.75 71.98 303.9 71.98 298.95 53.22 299.37 71.98 295.2 71.98 295.2 49.15 301.41 49.15 305.87 66.09 310.27 49.15 316.45 49.15 316.45 71.98 312.28 71.98"/><path class="cls-1" d="M344.16,67.59c-.74,2.3-3.36,5.24-9,5.24-2.68,0-5.37-.65-7.24-2.72a6.59,6.59,0,0,1-1.46-2.45,15.87,15.87,0,0,1-.35-4.66V49.42h4.3v14a7.49,7.49,0,0,0,.22,2.53c.43,1.35,1.65,2.71,4.7,2.71.54,0,3.68,0,4.62-2.58a8.08,8.08,0,0,0,.29-2.88V49.42h4.27V62.58c0,2.62,0,3.72-.39,5" transform="translate(-4.5 -0.27)"/><path class="cls-1" d="M365.4,70.47c-2.75,2.33-6.44,2.36-7.47,2.36-1.36,0-5.72-.06-8.89-3.4a8.13,8.13,0,0,1-1.1-1.48l3.59-2.49c1,1.48,2.88,3.42,7.08,3.42a8,8,0,0,0,1.68-.16c.49-.09,2.72-.71,2.72-2.84a2.39,2.39,0,0,0-.42-1.36c-.78-1-2.85-1.32-4-1.58l-2.72-.62a14.47,14.47,0,0,1-3.46-1.06A5.76,5.76,0,0,1,349.17,56a6.78,6.78,0,0,1,.87-3.36c1-1.75,3.52-3.75,8.15-3.75a10.82,10.82,0,0,1,9.22,4.62l-3.53,2.62a6.64,6.64,0,0,0-5.92-3.4c-.22,0-3.1,0-4,1.75a2.11,2.11,0,0,0-.26,1,2,2,0,0,0,.29,1c.55.94,1.81,1.23,3.91,1.68l2.37.52c2.16.49,4.56,1.13,6.08,2.91a5.22,5.22,0,0,1,1.32,3.85,6.11,6.11,0,0,1-2.23,5" transform="translate(-4.5 -0.27)"/><polygon class="cls-1" points="366.85 71.98 366.85 49.15 383.08 49.15 383.08 52.96 371.05 52.96 371.05 58.33 382.08 58.33 382.08 62.02 371.05 62.02 371.05 68.13 383.89 68.13 383.89 71.98 366.85 71.98"/><path class="cls-1" d="M409.69,67.59c-.74,2.3-3.36,5.24-9,5.24-2.68,0-5.36-.65-7.24-2.72A6.47,6.47,0,0,1,392,67.66a15.44,15.44,0,0,1-.36-4.66V49.42H396v14a7.18,7.18,0,0,0,.23,2.53c.42,1.35,1.65,2.71,4.69,2.71.55,0,3.68,0,4.62-2.58a8.08,8.08,0,0,0,.29-2.88V49.42h4.27V62.58c0,2.62,0,3.72-.39,5" transform="translate(-4.5 -0.27)"/><polygon class="cls-1" points="427.76 71.98 428.18 53.22 423.23 71.98 419.38 71.98 414.44 53.22 414.86 71.98 410.68 71.98 410.68 49.15 416.89 49.15 421.36 66.09 425.75 49.15 431.93 49.15 431.93 71.98 427.76 71.98"/><path class="cls-1" d="M200.71,101.67a10.29,10.29,0,0,1-3.88,2.62,11.51,11.51,0,0,1-4,.64,9.6,9.6,0,0,1-7.82-3.52A12.27,12.27,0,0,1,182,93a13.93,13.93,0,0,1,.68-4.43A10.64,10.64,0,0,1,193,80.94,10.52,10.52,0,0,1,201,84.56a12.15,12.15,0,0,1,2.85,8.38,12.88,12.88,0,0,1-3.17,8.73m-2.49-13.81a6,6,0,0,0-5.3-3,6.55,6.55,0,0,0-2.91.68c-1.62.87-3.63,3-3.63,7.28,0,.87,0,5.07,3.24,7.18a6.19,6.19,0,0,0,3.36,1,6.41,6.41,0,0,0,2.62-.55c1.68-.78,3.88-2.72,4-7a10.09,10.09,0,0,0-1.36-5.53" transform="translate(-4.5 -0.27)"/><polygon class="cls-1" points="207.78 85.07 207.78 90.76 217.32 90.76 217.32 94.41 207.78 94.41 207.78 104.08 203.54 104.08 203.54 81.25 218.65 81.25 218.65 85.07 207.78 85.07"/><path class="cls-1" d="M249,104.35l-1.32-4.46h-8.57l-1.33,4.46h-4.59L241,81.52h4.85l7.79,22.83Zm-5.59-18.72-3.17,10.51h6.31Z" transform="translate(-4.5 -0.27)"/><path class="cls-1" d="M269.19,104.35l-4.5-8.47h-3.85v8.47H256.6V81.52H266a7.52,7.52,0,0,1,6.15,2.78,7.43,7.43,0,0,1,1.39,4.47,8.25,8.25,0,0,1-.42,2.55A6.32,6.32,0,0,1,269,95l5.08,9.31Zm-1.46-18.46a5.81,5.81,0,0,0-3.43-.68h-3.46v7.11h1.52c2.49,0,4.05,0,5.08-.55a3.55,3.55,0,0,0,.29-5.88" transform="translate(-4.5 -0.27)"/><polygon class="cls-1" points="281.63 85.1 281.63 104.08 277.36 104.08 277.36 85.1 271.15 85.1 271.15 81.25 287.93 81.25 287.93 85.1 281.63 85.1"/><polygon class="cls-2" points="197.79 10.56 191.1 10.56 191.1 14 197.79 14 197.79 32.2 201.92 32.2 201.92 0.26 197.79 0.26 197.79 10.56"/><path class="cls-2" d="M191.76,8.56V3.13h-4.14V8.56c0,6-3.2,11.8-7.79,14.05l-.29.14L182.13,26l.19-.1c3.28-1.69,5.89-5,7.41-9.33a15.43,15.43,0,0,0,7.3,8.81l.2.1,2.44-3.32-.3-.14c-4.55-2.11-7.61-7.53-7.61-13.49" transform="translate(-4.5 -0.27)"/><polygon class="cls-2" points="206.22 16.53 218.56 16.53 218.56 18.53 209.58 18.53 209.58 21.77 227.51 21.77 227.51 23.49 209.65 23.49 209.65 31.89 232.44 31.89 232.44 28.62 213.72 28.62 213.72 26.55 231.54 26.55 231.54 18.53 222.7 18.53 222.7 16.53 235.08 16.53 235.08 13.16 206.22 13.16 206.22 16.53"/><path class="cls-2" d="M225.17,12.26c7.26,0,11.42-2.07,11.42-5.67S232.43.91,225.17.91,213.74,3,213.74,6.59s4.16,5.67,11.43,5.67m0-8.15c4.63,0,7.19.88,7.19,2.48s-2.56,2.47-7.19,2.47S218,8.18,218,6.59s2.55-2.48,7.19-2.48" transform="translate(-4.5 -0.27)"/><path class="cls-2" d="M253.7,8.6V3.2h-4.11V8.6c0,6.11-3.33,11.89-8.09,14l-.3.13,2.44,3.43.2-.1c3.54-1.72,6.31-5.08,7.87-9.51a15.74,15.74,0,0,0,7.64,8.82l.2.09,2.4-3.28-.3-.13C257,20,253.7,14.43,253.7,8.6" transform="translate(-4.5 -0.27)"/><rect class="cls-2" x="259.27" y="0.3" width="4.14" height="31.94"/><path class="cls-2" d="M294.74,22.58H281.85V19.36h-4.1v12.7h21.06V19.36h-4.07Zm0,6.07H281.85V25.92h12.89Z" transform="translate(-4.5 -0.27)"/><rect class="cls-2" x="290.21" y="0.33" width="4.1" height="17.83"/><path class="cls-2" d="M292.43,16.86l-.49-3.44-.27.05a78.23,78.23,0,0,1-13.53.93V11.46h10.72V2.06H274V5.5h10.82V8.23H274.08v9.61H277a89.24,89.24,0,0,0,15.19-.94Z" transform="translate(-4.5 -0.27)"/><path class="cls-2" d="M305,24.78h15.23V3.55H305Zm4-17.86h7.17V21.37H309Z" transform="translate(-4.5 -0.27)"/><rect class="cls-2" x="321" y="0.3" width="4.14" height="31.94"/><polygon class="cls-2" points="329.68 16.39 342.02 16.39 342.02 18.5 333.04 18.5 333.04 21.73 350.97 21.73 350.97 23.52 333.11 23.52 333.11 31.89 355.9 31.89 355.9 28.62 337.18 28.62 337.18 26.59 355 26.59 355 18.5 346.16 18.5 346.16 16.39 358.57 16.39 358.57 13.02 329.68 13.02 329.68 16.39"/><path class="cls-2" d="M337.18,12.12c5.18-.62,9.32-2.68,11.44-5.69,2.13,3,6.27,5.07,11.45,5.69l.19,0,1.44-3.25-.36,0c-6-.6-10.61-3.58-10.61-6.94V.74h-4.21V1.91c0,3.36-4.56,6.34-10.61,6.94l-.37,0L337,12.14Z" transform="translate(-4.5 -0.27)"/><path class="cls-2" d="M378.12,13.85l-.05.28,4,.44.05-.24a47,47,0,0,0,.77-9.3V3H366.64V6.4h12.23a43.17,43.17,0,0,1-.75,7.45" transform="translate(-4.5 -0.27)"/><polygon class="cls-2" points="369.08 21.76 364.94 21.76 364.94 31.58 386.76 31.58 386.76 28.14 369.08 28.14 369.08 21.76"/><polygon class="cls-2" points="385.76 10.25 385.76 0.33 381.62 0.33 381.62 24.37 385.76 24.37 385.76 13.72 389.92 13.72 389.92 10.25 385.76 10.25"/><path class="cls-2" d="M385,18.66l-.29-3.12-.28,0a86.78,86.78,0,0,1-9.4.82V10.1H371v6.42c-2.12.06-4.16.06-6,.06h-.3l.45,3.45h.24a117,117,0,0,0,19.39-1.33Z" transform="translate(-4.5 -0.27)"/><path class="cls-2" d="M270.06,308.07l-.7-.6.48-.79-6.13-18.87-.85-.36.21-.9L251.41,270.5l-.92-.07c0-.37-.05-.55-.08-.92l-16.13-11.73-.85.14c-.06-.34-.09-.52-.14-.85l-6.46-4.7-6.46-4.69-.85.13-.13-.85-6.46-4.69-6.46-4.69-.85.13c-.06-.33-.09-.52-.14-.85L199,232.17l-6.46-4.7-.85.14-.13-.85-6.47-4.7-6.45-4.69-.86.13c-.05-.33-.08-.51-.13-.85L171.21,212l-6.46-4.69-.85.13c-.05-.33-.08-.52-.14-.85l-6.45-4.69-6.47-4.7-.84.14c-.06-.33-.09-.52-.14-.85l-6.46-4.69-6.46-4.7-.85.14c-.05-.34-.08-.52-.14-.85l-6.46-4.7L123,177l-.85.13c-.05-.33-.08-.51-.13-.85l-6.46-4.69-6.46-4.69-.85.13c0-.33-.08-.52-.14-.85l-6.46-4.69-6.46-4.7-.85.14-.13-.85-6.46-4.7-6.46-4.69-.85.14c0-.34-.08-.52-.14-.85l-6.46-4.7-6.46-4.69-.85.13-.13-.85L60,131.14l-6.46-4.7-.85.14c-.06-.33-.08-.52-.14-.85L46.06,121l-6.46-4.7-.85.14-.13-.85-12-8.72-.79.06c0-.3,0-.49.07-.79l-8-11L17.14,95c.12-.28.19-.46.31-.73l-4.2-12.9L12.58,81l.51-.6V65.53l-.61-.61.61-.61v-16l-.61-.61c.24-.24.37-.38.61-.61v-16l-.61-.61.61-.61V20.52c-.16-.22-.28-.37-.45-.59l.69-.28L17,13.36c0-.27-.07-.46-.1-.73l.73.1L23.88,9.1c.1-.26.18-.43.28-.69l.59.45h9.42l.61-.6.61.6h16l.61-.6.6.6h16l.61-.6.61.6h16l.61-.6.61.6h16l.61-.6.61.6h16l.61-.6.61.6h16l.61-.6.6.6h16l.61-.6V.88l-.61-.61h-16l-.6.61c-.24-.24-.38-.37-.61-.61h-16l-.61.61-.61-.61h-16l-.61.61-.61-.61H87l-.61.61L85.73.27h-16l-.61.61L68.54.27h-16L52,.88,51.36.27h-16l-.61.61L34.17.27H22.77L22.19,1l-.9-.37-9.71,5.6-.12,1-1,.13-5.6,9.7c.15.37.21.53.37.9l-.77.58v11.4l.61.61-.61.61v16c.24.23.37.37.61.61-.24.23-.37.37-.61.61v16l.61.61-.61.61v16l.7.6-.48.79L9.63,98.05l.86.36-.22.9,9.35,12.87.92.07c0,.37.05.55.08.92l13,9.41.85-.13c0,.33.08.51.13.85L41,128l6.46,4.69.85-.13c0,.33.08.52.14.85l6.46,4.69,6.46,4.69.85-.13.13.85,6.46,4.69,6.46,4.7.85-.14c.05.34.09.52.14.85l6.46,4.7L89.19,163l.85-.14.13.86,6.46,4.69,6.46,4.69.85-.13c.06.33.09.52.14.85l6.46,4.69,6.46,4.7.85-.14.13.85,6.46,4.7,6.46,4.69.85-.14c.06.34.09.52.14.85l6.46,4.7,6.46,4.69.85-.13.13.85,6.46,4.69,6.46,4.69.85-.13c.06.33.09.52.14.85l6.46,4.69,6.46,4.7.85-.14.13.85,6.47,4.7,6.45,4.69.86-.13c.05.33.08.51.13.85l6.46,4.69,6.46,4.69.85-.13c.05.33.08.52.14.85l6.45,4.69,6.47,4.7.85-.14.13.85,6.46,4.69,6.46,4.7.85-.14c0,.34.08.52.14.85l15.19,11,.78-.06c0,.3,0,.49-.06.79l10.29,14.16.43.1.34.08-.3.74,5.41,16.64.67.42-.51.6v17.5l.51.6-.67.42-5.41,16.65c.11.27.19.45.3.73l-.77.18-10.29,14.17.06.78-.78-.06L230.25,370.5c0,.15-.06.27-.09.38l-.09.39-.73-.3-16.65,5.41-.41.67-.6-.51H194.17l-.6.51-.41-.67L176.51,371l-.73.3-.19-.77-15.19-11-.85.14-.13-.85-6.47-4.7-6.45-4.69-.85.14c-.06-.34-.09-.52-.14-.85l-6.46-4.7-6.46-4.69-.85.13c-.05-.33-.08-.52-.14-.85l-6.45-4.69-6.47-4.69-.85.13-.13-.85-6.46-4.69-6.46-4.7-.85.14c-.05-.33-.08-.52-.14-.85l-6.46-4.7L90.87,309l-.85.13-4.33,6,.13.85,6.46,4.69,6.46,4.7.85-.14c.06.34.08.52.14.86l6.46,4.69,6.46,4.69.85-.13c0,.33.08.51.13.85l6.46,4.69,6.46,4.69.85-.13c.06.33.09.52.14.85L134,350.9l6.46,4.7.85-.14c.05.34.08.52.13.85l6.46,4.7,6.46,4.69.86-.14.13.86,16.14,11.72.9-.22.35.86,18.87,6.13.79-.48.6.7h19.84l.61-.7.3.18.49.3,18.87-6.13.35-.86.9.22,16-11.66c0-.38.05-.55.08-.93l.92-.07,11.66-16.05c-.08-.37-.13-.54-.21-.9l.85-.36,6.13-18.87-.48-.79.7-.6Z" transform="translate(-4.5 -0.27)"/></svg>